<?xml version="1.0" encoding="utf-8"?>
<!-- Generator: Adobe Illustrator 19.0.0, SVG Export Plug-In . SVG Version: 6.00 Build 0)  -->
<svg version="1.1" id="Grupa_21" xmlns="http://www.w3.org/2000/svg" xmlns:xlink="http://www.w3.org/1999/xlink" x="0px" y="0px"
	 viewBox="-181.7 392.4 256.7 56.6" style="enable-background:new -181.7 392.4 256.7 56.6;" xml:space="preserve">
<style type="text/css">
	.st0{fill:#FFFFFF;}
</style>
<g>
	<path id="lob" class="st0" d="M-119.5,421c-0.9,0.1-1.7,0.3-2.5,0.6c-0.1-0.8-0.2-1.7-0.3-2.5c-0.1-1-0.1-2.4-0.1-4.4
		c0-1.4,0-2.7,0.1-3.9c0.1-1.2,0.2-2.2,0.3-2.9c-0.2,0-0.4,0-0.6-0.1s-0.4,0-0.6,0c-0.7,0-1.3,0-1.9,0.1c-0.7,0.1-1.3,0.2-2,0.4
		c0,2.2,0.1,5,0.4,8.4c0.3,3.4,0.6,6.1,0.9,8.3c2-0.3,3.6-0.5,5-0.6c1.3-0.1,2.7-0.2,4.2-0.2c0-0.6-0.1-1.2-0.2-1.8
		c-0.1-0.5-0.2-1.1-0.3-1.6C-117.9,420.8-118.7,420.9-119.5,421z M-104.7,420.9c0-0.5-0.1-1-0.3-1.5c-0.7,0.1-1.7,0.3-3.1,0.5
		c-1.4,0.2-2.3,0.3-2.7,0.3c-0.1-0.6-0.1-1.2-0.1-1.8c0-0.6-0.1-1.3-0.1-1.9c0.8-0.1,1.6-0.2,2.4-0.2s1.7-0.1,2.5-0.1
		c0-0.6,0-1.3-0.1-1.9c-0.1-0.5-0.1-1.1-0.3-1.6c-0.8,0-1.5,0.1-2.3,0.2c-0.8,0.1-1.5,0.3-2.2,0.5c0-0.8,0-1.5,0-1.9
		c0-0.4,0-0.8,0.1-1.1c1-0.1,1.9-0.1,2.8-0.1s1.7,0,2.6,0c0.1-0.6,0.2-1.3,0.3-1.9c0.1-0.6,0.1-1.1,0.1-1.7c-1.6,0-3.3,0.1-4.9,0.3
		c-1.7,0.2-3.6,0.5-5.9,0.9c0,2.1,0.2,4.7,0.5,7.8c0.3,3.1,0.6,5.8,1,8.2c1.5,0,3.5-0.1,5.8-0.3c1.4-0.1,2.7-0.2,4.1-0.5
		C-104.6,422.2-104.7,421.6-104.7,420.9L-104.7,420.9z M-91.4,414.7c-0.8-2.5-1.9-5-3.3-7.2c-0.6-0.2-1.3-0.3-1.9-0.4
		c-0.6-0.1-1.3-0.1-1.9-0.1c-0.9,3.2-1.8,5.9-2.6,8.1c-0.9,2.2-1.8,4.3-2.9,6.3c0.4,0.5,0.9,0.9,1.5,1.2c0.6,0.3,1.3,0.6,2,0.7
		c0.2-0.5,0.5-1,0.7-1.6c0.2-0.6,0.5-1.2,0.7-1.9c0.7-0.1,1.4-0.2,2.1-0.2c0.7,0,1.6-0.1,2.5-0.1c0.2,1,0.4,2,0.6,2.9
		s0.3,1.9,0.4,2.8c0.9-0.1,1.7-0.3,2.5-0.5c0.6-0.2,1.3-0.5,1.8-0.8C-89.7,420.7-90.4,417.6-91.4,414.7z M-96,414.2
		c0.2,0.7,0.5,1.5,0.7,2.4c-0.5,0-1,0-1.4,0.1s-1,0.1-1.5,0.2c0.3-0.8,0.5-1.7,0.7-2.5c0.2-0.8,0.4-1.6,0.6-2.3
		C-96.5,412.7-96.3,413.4-96,414.2L-96,414.2z M-78.6,415c-0.6,0.1-1.3,0.2-1.9,0.4c0,0.5,0.1,0.9,0.1,1.4c0.1,0.5,0.1,0.9,0.2,1.4
		c-0.2,0.4-0.4,0.8-0.8,1.2c-0.3,0.3-0.7,0.4-1.1,0.4c-0.6,0-1.2-0.4-1.4-1c-0.3-1-0.5-2.1-0.4-3.1c0-1.5,0.1-3,0.5-4.5
		c0.3-1.1,0.8-1.7,1.3-1.7c0.4,0,0.7,0.3,0.8,0.6c0.3,0.7,0.5,1.4,0.6,2.2c0.8,0,1.6,0,2.4-0.2c0.7-0.1,1.4-0.3,2.1-0.5
		c-0.1-1.3-0.6-2.6-1.5-3.5c-0.9-0.9-2.2-1.3-3.5-1.3c-2.1,0-4.1,1.1-5.2,2.9c-1.4,2.1-2.2,4.7-2.1,7.2c-0.1,1.6,0.4,3.2,1.3,4.5
		c0.9,1.1,2.2,1.7,3.6,1.7c0.8,0,1.6-0.2,2.4-0.5c0.7-0.4,1.4-0.9,1.9-1.5c0.1,0.4,0.3,0.8,0.4,1.2c0.2,0.4,0.3,0.8,0.5,1.1
		c0.7,0,1.3-0.1,1.8-0.2c0.5-0.1,1-0.2,1.5-0.3c-0.3-1.3-0.6-2.6-0.7-3.9c-0.2-1.4-0.2-2.7-0.2-4.1C-77,414.9-77.8,414.9-78.6,415z
		 M-65.7,407.2c-0.8,0.1-1.5,0.3-2.2,0.6c0.3,1.2,0.5,2.5,0.7,3.8c0.1,1.1,0.2,2.2,0.2,3.4c0,1.6-0.1,3.3-0.4,4.9
		c-0.2,1.1-0.6,1.7-1,1.7c-0.4,0-0.6-0.5-0.8-1.5c-0.2-1.4-0.3-2.7-0.3-4.1c0-1.1,0.1-2.2,0.2-3.4s0.3-2.4,0.5-3.6
		c-0.2-0.1-0.5-0.2-0.8-0.2c-0.4-0.1-0.8-0.1-1.2-0.1c-0.4,0-0.8,0-1.2,0.1c-0.3,0-0.7,0.1-1,0.2c-0.4,1-0.7,2.1-0.8,3.2
		c-0.3,1.5-0.4,3.1-0.4,4.7c-0.1,2,0.3,3.9,1.3,5.6c0.9,1.3,2.3,2,3.9,2c2,0.1,4-1,5-2.8c1.1-1.8,1.7-4.5,1.7-8.1
		c0-0.9-0.1-1.9-0.2-2.8c-0.1-1-0.3-2.3-0.7-3.8C-64.1,406.9-64.9,407-65.7,407.2z M-49.3,420.9c0-0.5-0.1-1-0.3-1.5
		c-0.7,0.1-1.7,0.3-3.1,0.5s-2.3,0.3-2.7,0.3c-0.1-0.6-0.1-1.2-0.1-1.8s0-1.3-0.1-1.9c0.8-0.1,1.6-0.2,2.4-0.2s1.7-0.1,2.5-0.1
		c0-0.6,0-1.3-0.1-1.9c-0.1-0.5-0.1-1.1-0.3-1.6c-0.8,0-1.5,0.1-2.3,0.2c-0.8,0.1-1.5,0.3-2.2,0.5c0-0.8,0-1.5,0-1.9
		c0-0.4,0-0.8,0.1-1.1c1-0.1,1.9-0.1,2.8-0.1s1.7,0,2.6,0c0.1-0.6,0.2-1.3,0.3-1.9c0.1-0.6,0.1-1.1,0.1-1.7c-1.6,0-3.3,0.1-4.9,0.3
		c-1.7,0.2-3.6,0.5-5.9,0.9c0,2.1,0.2,4.7,0.5,7.8s0.6,5.8,1,8.2c1.5,0,3.5-0.1,5.8-0.3c1.4-0.1,2.7-0.2,4.1-0.5
		C-49.2,422.2-49.3,421.6-49.3,420.9L-49.3,420.9z M-41.1,409c-1.5,1.8-2.2,4.2-2.1,6.5c-0.1,1.9,0.4,3.9,1.5,5.5
		c0.9,1.3,2.5,2.1,4.1,2c1.1,0,2.3-0.3,3.3-0.8c1-0.6,1.9-1.5,2.5-2.5c0.6-1,1-2,1.3-3.1c0.3-1.1,0.5-2.3,0.5-3.5
		c0.1-1.8-0.4-3.5-1.4-4.9c-1-1.2-2.5-1.8-4.1-1.7C-37.7,406.4-39.8,407.3-41.1,409z M-38.2,418.8c-0.4-1.3-0.6-2.6-0.5-3.9
		c-0.1-1.4,0.1-2.8,0.5-4.1c0.1-0.8,0.8-1.4,1.6-1.5c0.7,0,1.3,0.5,1.4,1.1c0.3,1.2,0.5,2.5,0.4,3.8c0.1,1.5-0.1,3-0.5,4.5
		c-0.1,0.7-0.7,1.3-1.5,1.4C-37.4,420.1-38,419.5-38.2,418.8L-38.2,418.8z M-22.9,420.7c0-1.2,0.1-2.5,0.1-3.8
		c0.6-0.1,1.2-0.1,1.9-0.2c0.7,0,1.4,0,2.2,0c0-0.8,0-1.5-0.1-2c0-0.5-0.1-1-0.3-1.5c-0.6,0-1.2,0-1.8,0.1c-0.6,0.1-1.2,0.2-1.9,0.3
		c0-0.6,0-1.2,0-1.9c0-0.6,0-1.2-0.1-1.9c0.4,0,1-0.1,1.9-0.2l3.2-0.3c0.1-0.3,0.1-0.7,0.2-1c0-0.3,0.1-0.6,0.1-0.9
		c0-0.3,0-0.7-0.1-1c0-0.3-0.1-0.6-0.2-0.8c-0.5,0.1-1.3,0.2-2.5,0.4c-1.2,0.2-2.1,0.3-2.8,0.4c-1,0.1-1.9,0.2-2.8,0.3
		c-0.9,0.1-1.7,0.2-2.6,0.2c0.4,2.1,0.7,4.9,0.9,8.4c0.2,3.5,0.4,6.6,0.4,9.2c0.7,0,1.4,0,2.1-0.1c0.7-0.1,1.3-0.2,1.9-0.4
		C-23,423-23,421.9-22.9,420.7L-22.9,420.7z M0.5,414.7c-0.6-0.6-1.3-1.1-2.2-1.3c0.6-0.4,1.1-0.9,1.4-1.5c0.3-0.6,0.5-1.3,0.5-1.9
		c0-1.1-0.5-2.1-1.4-2.7c-1.2-0.7-2.7-1-4.1-0.9c-0.9,0-1.8,0.1-2.7,0.3c-0.9,0.2-1.8,0.5-2.6,0.9c0,0.4,0,0.8,0,1.2s0,1.1,0,2
		c0,2,0,3.9,0.1,5.7c0.1,1.8,0.2,3.5,0.4,5.2c0.7,0.4,1.4,0.8,2.2,1c0.7,0.2,1.4,0.3,2.2,0.3c1.8,0,3.6-0.6,5-1.8
		c1.3-1.1,2.1-2.8,2-4.5C1.3,416,1,415.2,0.5,414.7L0.5,414.7z M-4.7,412.3c-0.4,0.5-1,0.8-1.7,0.9c0-0.7,0.1-1.4,0.1-2.1
		c0.1-0.7,0.1-1.5,0.2-2.3H-6c0.5,0,1,0.1,1.4,0.4c0.3,0.3,0.5,0.8,0.5,1.3C-4.1,411.2-4.3,411.8-4.7,412.3L-4.7,412.3z M-6.5,419.2
		v-2.5c0-0.2,0-0.4,0-0.6c0.2-0.1,0.4-0.2,0.7-0.2c0.2,0,0.4-0.1,0.6-0.1c0.5,0,1.1,0.1,1.5,0.5c0.4,0.4,0.6,0.9,0.5,1.4
		c0,0.7-0.2,1.4-0.7,1.9c-0.3,0.5-0.9,0.8-1.5,0.9c-0.2,0-0.4,0-0.5-0.1c-0.2-0.1-0.4-0.1-0.6-0.2C-6.5,419.8-6.5,419.5-6.5,419.2
		L-6.5,419.2z M13.9,420.9c0-0.5-0.1-1-0.3-1.5c-0.7,0.1-1.7,0.3-3.1,0.5c-1.4,0.2-2.3,0.3-2.7,0.3c-0.1-0.6-0.1-1.2-0.1-1.8
		c0-0.6-0.1-1.3-0.1-1.9c0.8-0.1,1.6-0.2,2.4-0.2s1.7-0.1,2.5-0.1c0-0.6,0-1.3-0.1-1.9c-0.1-0.5-0.1-1.1-0.3-1.6
		c-0.8,0-1.5,0.1-2.3,0.2c-0.8,0.1-1.5,0.3-2.2,0.5c0-0.8,0-1.5,0-1.9c0-0.4,0-0.8,0.1-1.1c1-0.1,1.9-0.1,2.8-0.1s1.7,0,2.6,0
		c0.1-0.6,0.2-1.3,0.3-1.9c0.1-0.6,0.1-1.1,0.1-1.7c-1.6,0-3.3,0.1-4.9,0.3c-1.7,0.2-3.6,0.5-5.9,0.9c0,2.1,0.2,4.7,0.5,7.8
		c0.3,3.1,0.6,5.8,1,8.2c1.5,0,3.5-0.1,5.8-0.3c1.4-0.1,2.7-0.2,4.1-0.5C14,422.2,14,421.5,13.9,420.9L13.9,420.9z M27.2,414.7
		c-0.8-2.5-1.9-5-3.3-7.2c-0.6-0.2-1.3-0.3-1.9-0.4c-0.6-0.1-1.3-0.1-1.9-0.1c-0.9,3.2-1.8,5.9-2.6,8.1c-0.9,2.2-1.8,4.3-2.9,6.4
		c0.4,0.5,0.9,0.9,1.5,1.2c0.6,0.3,1.3,0.6,2,0.7c0.2-0.5,0.5-1,0.7-1.6c0.3-0.6,0.5-1.2,0.7-1.9c0.7-0.1,1.4-0.2,2.1-0.2
		c0.7,0,1.6-0.1,2.5-0.1c0.2,1,0.4,2,0.6,2.9s0.3,1.9,0.4,2.8c0.9-0.1,1.7-0.3,2.5-0.5c0.6-0.2,1.3-0.5,1.8-0.8
		C28.9,420.7,28.2,417.6,27.2,414.7L27.2,414.7z M22.6,414.1c0.2,0.7,0.5,1.5,0.7,2.4c-0.5,0-1,0-1.4,0.1c-0.5,0-1,0.1-1.5,0.2
		c0.3-0.8,0.5-1.7,0.7-2.5c0.2-0.8,0.4-1.6,0.6-2.3C22.1,412.7,22.4,413.4,22.6,414.1L22.6,414.1z M38.8,407.2
		c-0.8,0.1-1.5,0.3-2.2,0.6c0.3,1.2,0.5,2.5,0.7,3.8c0.1,1.1,0.2,2.2,0.2,3.4c0,1.6-0.1,3.3-0.4,4.9c-0.2,1.1-0.6,1.7-1,1.7
		c-0.4,0-0.6-0.5-0.8-1.5c-0.2-1.4-0.3-2.7-0.3-4.1c0-1.1,0.1-2.2,0.2-3.4s0.3-2.4,0.5-3.6c-0.2-0.1-0.5-0.2-0.8-0.2
		c-0.4-0.1-0.8-0.1-1.2-0.1c-0.4,0-0.8,0-1.2,0.1c-0.3,0-0.7,0.1-1,0.2c-0.4,1-0.7,2.1-0.8,3.2c-0.3,1.5-0.4,3.1-0.4,4.7
		c-0.1,2,0.3,3.9,1.3,5.6c0.9,1.3,2.3,2,3.9,2c2,0.1,4-1,5-2.8c1.1-1.8,1.7-4.5,1.7-8.1c0-0.9-0.1-1.9-0.2-2.8
		c-0.1-1-0.3-2.3-0.7-3.8C40.4,406.9,39.6,407,38.8,407.2L38.8,407.2z M51.6,418c0.1-1.1,0.1-2.2,0.1-3.1c0-1,0-2.1,0-3
		c0-1-0.1-1.9-0.1-2.8c0.5,0,1,0,1.6-0.1c0.5,0,1.1,0,1.6,0c0.1-0.3,0.1-0.7,0.2-1c0-0.3,0.1-0.6,0.1-0.9c0-0.3,0-0.7-0.1-1
		c0-0.3-0.1-0.6-0.2-0.8c-2.1,0-4.1,0.1-6.2,0.3c-1.9,0.2-3.9,0.5-5.8,1c0,0.5,0.1,1.1,0.2,1.6c0.1,0.5,0.2,1.1,0.4,1.6l2.2-0.2
		c0.5-0.1,0.9-0.1,1.1-0.1c0.2,1.7,0.4,3.8,0.5,6.2c0.1,2.4,0.2,4.6,0.2,6.7c0.7,0,1.4,0,2.1-0.1c0.6-0.1,1.3-0.2,1.9-0.4
		C51.5,420.3,51.6,419.1,51.6,418L51.6,418z M66.3,407.1c-0.8-0.3-1.6-0.4-2.4-0.5c-0.3,1.5-0.5,2.8-0.8,4s-0.6,2.3-0.9,3.4
		c-0.5-1.1-0.9-2.2-1.2-3.4c-0.3-1.4-0.6-2.8-0.8-4.2c-0.8,0-1.6,0.2-2.4,0.4c-0.7,0.2-1.4,0.6-2,1c0.5,2,1.1,4,1.9,5.9
		c0.7,1.7,1.7,3.2,2.8,4.6c-0.4,0.8-0.7,1.6-1.2,2.4s-0.9,1.7-1.4,2.5c0.5,0.4,1,0.7,1.5,0.9c0.6,0.3,1.2,0.5,1.9,0.7
		c1.5-2.4,2.8-4.9,3.9-7.5c1.2-3,2.2-6.1,3-9.3C67.7,407.7,67,407.3,66.3,407.1z"/>
	<path id="animals" class="st0" d="M-68.4,441.1c0.3,0.2,0.6,0.2,0.9,0.2c0.9,0,2.2-0.8,3.7-2.3c0.2-0.2,0.4-0.4,0.5-0.6
		c0,0.2,0.1,0.3,0.2,0.5c0.1,0.2,0.1,0.3,0.2,0.5c0.2,0.5,0.5,0.8,0.9,1.1c0.3,0.2,0.8,0.3,1.2,0.3c0.2,0,0.3,0,0.5,0
		c0.2-0.1,0.3-0.2,0.4-0.3c0.1-0.2,0.2-0.5,0.2-0.7c0-0.3-0.2-0.5-0.5-0.5c-0.2,0-0.3-0.1-0.5-0.2c-0.1-0.1-0.2-0.2-0.3-0.4
		c-0.3-0.5-0.5-1-0.5-1.6c0-0.4,0.1-0.8,0.2-1.1l0.4-1.1l-0.8-0.7c-0.1-0.1-0.3-0.3-0.7-0.6l-0.6-0.5c-0.3-0.2-0.6-0.3-0.9-0.3
		c-0.3,0-0.6,0.1-0.9,0.3c-0.4,0.3-0.8,0.6-1.2,1c-0.3,0.3-0.6,0.6-0.9,0.9l-0.2,0.4c-0.1,0-0.1,0-0.2,0.1c0,0-0.1,0.1-0.1,0.2
		c-0.1,0.1-0.2,0.2-0.3,0.4c-0.1,0.2-0.2,0.3-0.3,0.5c-0.5,0.9-0.8,1.6-1.1,2.3c-0.2,0.3-0.3,0.7-0.2,1.1c0.1,0.1,0.1,0.2,0.2,0.3
		c0.1,0.1,0.1,0.2,0.1,0.3c0.1,0.1,0.2,0.2,0.3,0.3C-68.7,440.8-68.5,441-68.4,441.1L-68.4,441.1L-68.4,441.1z M-67.2,439.3
		c0-0.1,0.1-0.3,0.2-0.6c0.1-0.3,0.2-0.6,0.4-0.8c0.5-0.8,1-1.6,1.6-2.4c0.2-0.4,0.6-0.7,1.1-0.8c0.1,0,0.3,0.1,0.4,0.2
		c0.2,0.2,0.3,0.4,0.4,0.6l-0.5,0.8c-0.2,0.3-0.4,0.6-0.7,0.8c-0.2,0.2-0.5,0.5-1,0.8c-0.1,0.1-0.2,0.2-0.3,0.3
		c-0.1,0.1-0.2,0.2-0.2,0.2C-66.2,438.9-66.7,439.2-67.2,439.3L-67.2,439.3L-67.2,439.3z M-51.6,441c0.2-0.1,0.4-0.2,0.6-0.3
		c0.2-0.1,0.3-0.3,0.3-0.5c-0.1-0.2-0.1-0.4-0.2-0.5c-0.1-0.2-0.2-0.5-0.2-0.7l0,0c0,0,0,0,0-0.1c0,0,0,0,0-0.1
		c0.1-0.3,0.1-0.7,0.1-1c0-0.2,0-0.4,0-0.5l0-0.7c0-0.2,0-0.3,0.1-0.5c0-0.2,0-0.4,0-0.5c-0.1-0.3-0.3-0.5-0.6-0.6
		c-0.2-0.2-0.5-0.3-0.8-0.3c-0.4,0.1-0.7,0.2-1,0.5c-0.5,0.3-1.1,0.8-1.8,1.4c-0.5,0.4-0.9,0.7-1.3,1c0-0.1,0.1-0.2,0.1-0.3
		c0.1-0.2,0.2-0.3,0.2-0.4l0.2-0.5c0.2-0.5,0.4-0.8,0.5-1c0.1-0.2,0.1-0.4,0.1-0.6c0-0.4-0.1-0.7-0.4-0.9c-0.3-0.2-0.6-0.3-1-0.3
		c-0.1,0-0.2,0-0.3,0.1c-0.1,0-0.2,0.1-0.2,0.2c0,0,0,0,0,0c0,0,0,0,0,0c0,0.3-0.1,0.6-0.2,0.8c-0.1,0.3-0.3,0.7-0.5,1.2
		c-0.2,0.4-0.4,0.9-0.5,1.3c-0.3,0.6-0.5,1-0.7,1.4c-0.1,0.4-0.2,0.8-0.2,1.2c0.1,0.3,0.3,0.5,0.5,0.7c0.2,0.2,0.4,0.4,0.7,0.5
		c0.1,0,0.2,0,0.4-0.1c0.1-0.1,0.2-0.2,0.3-0.4c0.2-0.2,0.4-0.5,0.6-0.7c0.7-0.6,1.5-1.3,2.2-1.8c0.4-0.4,0.9-0.6,1.5-0.8
		c0.1,0,0.2,0.1,0.3,0.4v0.4c0,0.1,0,0.4,0,0.7c0,0.3-0.1,0.5-0.1,0.8c-0.1,0.7,0.4,1.4,1.1,1.5C-51.8,441-51.7,441-51.6,441
		L-51.6,441L-51.6,441z M-46.6,432.4c0.2,0.1,0.3,0.1,0.5,0.1c0.2,0,0.4-0.1,0.6-0.2c0.2-0.1,0.4-0.3,0.5-0.4
		c0.3-0.3,0.5-0.7,0.5-1.2c0-0.2-0.1-0.4-0.2-0.6c-0.1-0.2-0.3-0.4-0.5-0.5c-0.2-0.1-0.4-0.2-0.6-0.2c-0.1,0-0.2,0-0.3,0.1
		c-0.1,0.1-0.2,0.2-0.3,0.3c-0.1,0.2-0.2,0.4-0.3,0.6c0,0.1-0.1,0.2-0.2,0.4c-0.1,0.1-0.2,0.3-0.3,0.4c-0.1,0.1-0.1,0.2,0,0.3
		c0,0.2,0.1,0.3,0.2,0.5C-46.9,432.1-46.8,432.3-46.6,432.4L-46.6,432.4L-46.6,432.4z M-49,441.2c0.2,0.2,0.4,0.3,0.6,0.3
		c0.2,0,0.4-0.1,0.5-0.3c0.2-0.2,0.3-0.5,0.4-0.8c0.1-0.3,0.2-0.7,0.3-1.1c0-0.1,0-0.2,0.1-0.4c0.1-0.4,0.3-0.7,0.4-1.1
		c0-0.2,0.1-0.4,0.2-0.7c0.1-0.2,0.1-0.4,0.2-0.6c0.2-0.3,0.3-0.6,0.3-0.9c0-0.1,0-0.3-0.1-0.4c-0.2-0.3-0.4-0.5-0.6-0.7
		c-0.2-0.2-0.4-0.3-0.6-0.2c-0.1,0-0.2,0-0.3,0.1c-0.1,0-0.1,0.1-0.1,0.2c-0.1,0.4-0.3,0.9-0.6,1.8c-0.3,0.8-0.5,1.4-0.7,1.8
		c-0.1,0.2-0.2,0.5-0.2,0.7c0,0.1,0,0.1,0,0.2c0,0.1,0,0.2,0,0.3c-0.1,0.2-0.1,0.4-0.1,0.6C-49.3,440.5-49.2,440.9-49,441.2
		L-49,441.2L-49,441.2z M-34.2,441.1c0.4,0,0.7-0.1,1-0.2c0.3-0.1,0.4-0.4,0.4-0.7c0-0.2,0-0.4-0.2-0.5c-0.1-0.1-0.3-0.2-0.4-0.2
		c-0.1,0-0.2-0.1-0.3-0.2c-0.1-0.5-0.2-1-0.2-1.5c0-0.6-0.1-1.2-0.3-1.7c-0.1-0.4-0.5-0.6-0.9-0.6c-0.6,0.1-1.1,0.4-1.5,0.7
		c-0.5,0.3-1,0.7-1.5,1.2c0.1-0.2,0.2-0.5,0.3-0.8c0.1-0.4,0.2-0.7,0.2-0.7l0-0.2c0-0.2-0.1-0.5-0.2-0.6c-0.1-0.2-0.3-0.3-0.5-0.5
		c-0.1-0.1-0.3-0.2-0.5-0.2c-0.5,0.2-1,0.5-1.4,0.8c-0.6,0.4-1.2,0.9-1.7,1.4c-0.1,0.1-0.2,0.2-0.4,0.2h0c0,0,0,0,0-0.1
		c0-0.2,0.1-0.4,0.2-0.6c0.2-0.3,0.3-0.6,0.3-0.7l0.2-0.6c0.1-0.2,0.2-0.5,0.2-0.7c0-0.3-0.1-0.6-0.3-0.8c-0.2-0.3-0.5-0.4-0.9-0.4
		c-0.3,0-0.5,0.1-0.7,0.2c-0.2,0.1-0.3,0.3-0.3,0.6c0,0.1,0,0.1,0,0.2c0,0.1,0,0.2,0,0.3c0,0.2,0,0.4-0.1,0.6
		c-0.2,0.5-0.4,0.9-0.5,1.2c-0.1,0.2-0.2,0.5-0.2,0.7l-0.1,0.5c0,0.2-0.1,0.4-0.1,0.5c0,0.1-0.1,0.3-0.1,0.4
		c-0.1,0.3-0.1,0.6-0.2,0.9c-0.1,0.2-0.1,0.5-0.1,0.7c0,0.7,0.6,1.3,1.3,1.3c0.2-0.2,0.3-0.4,0.5-0.6c0.5-0.6,0.8-0.9,0.9-1.1l1-1
		c0.5-0.5,0.8-0.9,1.1-1.1c0.1-0.2,0.4-0.3,0.6-0.3c0,0,0,0,0,0c-0.1,0.5-0.3,1-0.5,1.4l-0.5,1.5v0.1c0,0.1,0,0.2,0.1,0.3
		c0,0.1,0.1,0.2,0.2,0.2l0.2,0.2c0.1,0.1,0.2,0.1,0.3,0.1c0.2,0,0.3-0.1,0.5-0.2c0.2-0.1,0.4-0.3,0.5-0.5c0.2-0.2,0.3-0.3,0.5-0.4
		c0,0,0.1-0.1,0.1-0.1c1.3-1.4,2.1-2.1,2.5-2.1c0,0,0.1,0,0.1,0.1c0,0.1,0,0.3-0.1,0.4c0,0.2-0.1,0.5-0.1,0.7c0,0.4,0.1,0.8,0.2,1.1
		c0.1,0.3,0.3,0.5,0.5,0.7c0.1,0.1,0.3,0.2,0.5,0.3C-34.5,441-34.3,441.1-34.2,441.1L-34.2,441.1L-34.2,441.1z M-31.7,441.1
		c0.3,0.2,0.6,0.2,0.9,0.2c0.9,0,2.2-0.8,3.7-2.3c0.2-0.2,0.4-0.4,0.5-0.6c0,0.2,0.1,0.3,0.2,0.5c0.1,0.2,0.1,0.3,0.2,0.5
		c0.2,0.5,0.5,0.8,0.9,1.1c0.3,0.2,0.8,0.3,1.2,0.3c0.2,0,0.3,0,0.5,0c0.2-0.1,0.3-0.2,0.4-0.3c0.1-0.2,0.2-0.5,0.2-0.7
		c0-0.3-0.2-0.5-0.5-0.5c-0.2,0-0.3-0.1-0.5-0.2c-0.1-0.1-0.2-0.2-0.3-0.4c-0.3-0.5-0.5-1-0.5-1.6c0-0.4,0.1-0.8,0.2-1.1l0.4-1.1
		l-0.8-0.7c-0.1-0.1-0.3-0.3-0.7-0.6l-0.6-0.5c-0.3-0.2-0.6-0.3-0.9-0.3c-0.3,0-0.6,0.1-0.9,0.3c-0.4,0.3-0.8,0.6-1.2,1
		c-0.3,0.3-0.6,0.6-0.9,0.9l-0.2,0.4c-0.1,0-0.1,0-0.2,0.1c0,0-0.1,0.1-0.1,0.2c-0.1,0.1-0.2,0.2-0.3,0.4c-0.1,0.2-0.2,0.3-0.3,0.5
		c-0.5,0.9-0.8,1.6-1.1,2.3c-0.2,0.3-0.3,0.7-0.2,1.1c0.1,0.1,0.1,0.2,0.2,0.3c0.1,0.1,0.1,0.2,0.1,0.3c0.1,0.1,0.2,0.2,0.3,0.3
		C-31.9,440.8-31.8,441-31.7,441.1L-31.7,441.1L-31.7,441.1z M-30.5,439.3c0-0.1,0.1-0.3,0.2-0.6c0.1-0.3,0.2-0.6,0.4-0.8
		c0.5-0.8,1-1.6,1.6-2.4c0.2-0.4,0.6-0.7,1.1-0.8c0.1,0,0.3,0.1,0.4,0.2c0.2,0.2,0.3,0.4,0.4,0.6l-0.5,0.8c-0.2,0.3-0.4,0.6-0.7,0.8
		c-0.2,0.2-0.5,0.5-1,0.8c-0.1,0.1-0.2,0.2-0.3,0.3s-0.2,0.2-0.2,0.2C-29.5,438.9-29.9,439.2-30.5,439.3L-30.5,439.3L-30.5,439.3z
		 M-21.5,441.8c0.2-0.1,0.3-0.2,0.4-0.4c0.1-0.2,0.2-0.5,0.2-0.8c0-0.4,0.1-0.8,0.2-1.1c0.1-0.4,0.3-1.1,0.6-2.1l0.2-0.6
		c0.2-0.4,0.3-0.8,0.4-1.2c0,0,0-0.1,0-0.1c0-0.1,0-0.1,0.1-0.1c0.1-0.1,0.1-0.2,0.1-0.4c0.1-0.3,0.2-0.7,0.4-1
		c0.3-0.6,0.4-1,0.6-1.2c0-0.1,0.1-0.3,0.2-0.4c0-0.1,0.1-0.2,0.1-0.3c0.1-0.2,0.1-0.3,0.2-0.5c0.2-0.5,0.3-0.7,0.4-0.8
		c0.5-1,0.7-1.6,0.8-1.8c0.1-0.2,0.1-0.5,0.1-0.8c0-0.2,0-0.3-0.1-0.4c-0.1-0.1-0.2-0.3-0.4-0.4l-0.4-0.4c-0.1,0-0.2,0-0.4,0
		c-0.1,0-0.2,0-0.3,0.1c-0.1,0-0.2,0.1-0.3,0.2c-0.1,0.1-0.1,0.2-0.1,0.3c-0.2,0.9-0.5,1.8-0.9,2.7c-0.6,1.6-1,2.6-1.2,3.1
		c0,0.1,0,0.1-0.1,0.2c0,0.1,0,0.1-0.1,0.2c0,0.1,0,0.2-0.1,0.2c0,0.1,0,0.2-0.1,0.2c-0.1,0.1-0.1,0.2-0.2,0.3
		c0,0.1-0.1,0.3-0.1,0.4c0,0.1,0,0.2-0.1,0.3c0,0.1-0.1,0.1-0.2,0.1c-0.1,0.1-0.2,0.6-0.5,1.3c-0.2,0.5-0.3,1-0.4,1.5
		c0,0.3-0.1,0.6-0.2,0.9c-0.1,0.3-0.1,0.6-0.1,0.9c0,0.5,0.1,0.9,0.3,1.3c0.1,0.3,0.4,0.5,0.8,0.5
		C-21.6,441.8-21.5,441.8-21.5,441.8L-21.5,441.8L-21.5,441.8z M-16.3,441.9c0.7,0,1.5-0.1,2.1-0.4c0.5-0.2,0.8-0.6,0.8-1.2
		c0-0.2-0.1-0.5-0.2-0.7c-0.1-0.2-0.3-0.5-0.5-0.6c-0.4-0.4-0.9-0.8-1.4-1.1c-0.3-0.2-0.5-0.4-0.7-0.6c-0.1-0.1-0.2-0.3-0.2-0.4
		c0-0.1,0-0.1,0-0.2v-0.1l0-0.1c0-0.2,0.1-0.4,0.3-0.6c0.1-0.2,0.3-0.4,0.5-0.6c0.1-0.1,0.2-0.2,0.3-0.3c0,0,0,0,0,0c0,0,0,0,0,0
		c0.1,0,0.1,0,0.1-0.1c0-0.1,0.1-0.1,0.1-0.2c0.5-0.4,1.1-0.8,1.7-1c0.1,0,0.2,0,0.3,0c0.1,0,0.1,0.1,0.1,0.1c0,0.2-0.1,0.4-0.2,0.6
		c-0.1,0.2-0.3,0.4-0.5,0.6c-0.1,0.1-0.2,0.2-0.3,0.4c0,0.2,0.1,0.4,0.3,0.5c0.1,0.1,0.2,0.2,0.4,0.3l0.1,0c0.4,0,0.7-0.2,1-0.4
		c0.3-0.1,0.5-0.4,0.5-0.7c0,0,0-0.1,0-0.1c0,0,0,0,0.1,0c0.1,0,0.2-0.1,0.2-0.4c0-0.3,0-0.7,0-1.2c-0.1-0.3-0.3-0.5-0.5-0.7
		c-0.2-0.2-0.4-0.4-0.7-0.4l-0.2,0c-0.2-0.1-0.4-0.1-0.6-0.1c-0.3,0-0.7,0-1,0.2c-0.7,0.2-1.3,0.6-1.9,1c-0.6,0.5-1.2,1-1.6,1.6
		c-0.4,0.5-0.6,1-0.7,1.7c0,0.3,0,0.6,0.1,0.8c0,0.2,0.1,0.3,0.3,0.4v0.1l0,0c0.1,0.2,0.2,0.3,0.3,0.4c0.2,0.2,0.5,0.4,0.7,0.6
		c0.3,0.2,0.5,0.4,0.7,0.6c0.1,0,0.3,0.1,0.4,0.2c0.1,0.1,0.1,0.1,0.2,0.2c-0.1,0.1-0.2,0.2-0.4,0.2c-0.3,0.1-0.5,0.1-0.8,0.1
		l-0.6-0.1c-0.2,0-0.3,0-0.5-0.1c-0.1,0-0.1,0-0.2,0c-0.1,0-0.3,0-0.4,0l-0.1,0.1c-0.2,0-0.3,0.2-0.2,0.3c0,0.2,0.2,0.5,0.4,0.6
		c0.3,0.2,0.6,0.4,0.9,0.5C-17,441.8-16.7,441.9-16.3,441.9L-16.3,441.9L-16.3,441.9z"/>
	<path id="paw" class="st0" d="M-145.6,419.9c-1.4-0.8-2.9-1.6-4.5-2.2c-1.5-0.7-3.1-1-4.7-1.1c-1.3-0.1-2.5,0.2-3.6,0.8
		c-1.1,0.7-2.1,1.7-2.9,2.8c-0.7,1.1-1.1,2.2-1.4,3.4c-0.5,2.9-0.2,6,0.7,8.8c0.2,1.1,0.9,2,2,2.5c0.9,0.6,2,0.6,2.9,0
		c1.1-0.6,2.1-1.5,2.8-2.6c0.8-1,1.7-1.9,2.7-2.8c0.8-0.7,1.9-1.1,2.9-1.2c1.1,0,2.2-0.2,3.4-0.4c0.9-0.1,1.8-0.5,2.5-1.1
		c0.7-0.7,1.1-1.6,1.1-2.6c-0.2-1-0.8-1.8-1.5-2.5C-144,421-144.8,420.4-145.6,419.9 M-172,418.1c-0.5,0-1.1,0.1-1.5,0.4
		c-0.6,0.3-1,0.9-1.3,1.5c-0.3,0.6-0.3,1.3-0.1,1.9c0.5,1.9,1.7,3.5,3.4,4.5c1.5,1.2,3.6,1.5,5.4,0.8c0.7-0.2,1.3-0.7,1.5-1.4
		c0.3-0.7,0.4-1.6,0.1-2.3c-0.5-1.5-1.5-2.9-2.8-3.9C-168.6,418.7-170.3,418.1-172,418.1 M-172,405.7l-0.7,0.3
		c-0.7,0.5-1.3,1.3-1.5,2.2c-0.1,0.9,0,1.9,0.3,2.8c0.6,1.7,1.7,3.1,3.2,4.1c1.4,1.2,3.2,1.7,5,1.2c0.3-0.1,0.6-0.2,0.8-0.4
		c0.9-0.8,1.3-1.9,1.3-3c0-1.1-0.4-2.3-1.1-3.2c-0.8-1.3-1.9-2.4-3.2-3.2C-169.1,405.6-170.6,405.3-172,405.7 M-145.6,407.2
		c-0.4-1-1.2-1.8-2.1-2.3c-0.9-0.6-2.1-0.6-3.1-0.1c-1.2,0.8-2.1,2.1-2.2,3.6c-0.3,1.5,0,3.1,0.7,4.4c0.4,1.1,1,2,2,2.6
		c0.9,0.7,2.2,0.8,3.2,0.3c1.4-0.8,2.3-2.2,2.4-3.9C-144.5,410.2-144.8,408.6-145.6,407.2 M-156.9,401.8c-0.6-1-1.5-1.7-2.5-2.1
		c-0.9-0.4-2-0.4-2.9,0.1l-0.1,0.1c-1.1,0.8-1.7,2.2-1.7,3.6c-0.1,1.5,0.2,2.9,0.8,4.3c0.5,1.2,1.4,2.3,2.5,3c1.1,0.8,2.4,1,3.6,0.7
		c0.4-0.1,0.7-0.4,1-0.7c1.1-1.2,1.6-2.9,1.4-4.5C-155,404.7-155.8,403.1-156.9,401.8L-156.9,401.8z"/>
</g>
</svg>
