<svg xmlns="http://www.w3.org/2000/svg" width="364.22" height="383.78" viewBox="0 0 364.22 383.78">
  <defs>
    <style>
      .cls-1 {
        fill: #f0f0f0;
        fill-rule: evenodd;
      }
    </style>
  </defs>
  <path id="Kształt_21_kopia_2" data-name="Kształt 21 kopia 2" class="cls-1" d="M1413.15,1274.28c7.9-5.79,39.56,2.46,61.15-1.41,22.49-4.04,66.21-17.85,76.6,3.74s10.51,45.7,6.59,63.42-18.3,53.75-9.96,56.15,23.76-24.45,30.37-46.23,10.97-29.72,13.42-46.87c2.2-15.38-10.92-39.06-10.92-39.06s68.07,10.9,72.43,51.38-25.66,74.87-30.53,81.54c-10.68,14.63-39.81,55.02-24.15,56.86s33.2-33.24,41.66-45.8,21.65-29.52,26.13-43.06,7.8-36.17,7.8-36.17,92.77,103.59,52.25,176.44-40.84,71.59-62.93,75.74-62.16-17.19-62.16-17.19,25.33,4.57,40.43-.88,30.24-14.86,30.24-14.86-21.32,11.25-39.17,12.23a123.039,123.039,0,0,1-34.17-3.38s38.08-20.58,57.18-35.23,47.9-48.47,47.9-48.47-33.68,34.47-54.63,46.14-55.66,32.52-55.66,32.52-10.73-13.58-11.43-20.11c-0.83-7.8,43.2-40.2,62.73-72.43,26.68-44.05,23.32-63.12,23.32-63.12s5.06,21.14-32.49,67.48c-37.74,46.58-59.5,59.53-59.5,59.53l-24.59-40.42s37.16-50.6,48.99-98.71c11.71-47.63,10.73-40.47,10.73-40.47s-10.2,28.69-21.12,57.94c-13.25,35.52-43.35,73.17-43.35,73.17l-39.6-59.28s20.27-39.96,22.36-60.66-7.38-41.58-7.38-41.58,12.12,23.89,2.13,48.03-20.37,44.73-20.37,44.73l-67.78-97.13,37.97,67.05s-11.96,3.05-22.3-.09c-7.81-2.37-27.72-13.8-27.72-13.8s12.34,9.61,24.14,15.05,31.05,5.75,31.05,5.75l42.56,67.98s-11.31,8.44-42.12,9.76-43.75-5.4-43.75-5.4,45.48,10.04,58.97,7.64,31.08-5.47,31.08-5.47l29.89,52.67s-16.37,9.77-44.98,14.5-46.02,5.32-46.02,5.32,45.01-2.03,56.46-4.09,34.77-12.81,39.02-9.74,18,29.37,18,29.37-0.12-4.58-16.22,7.28-28.31,32.58-43.62,38.24-45.65,5.74-45.65,5.74,43.05,0.44,50.67-4.17c16.81-10.16,24.38-25.81,38.99-33.15s19.78-5.9,19.78-5.9-1.09-4.2.93,4.61c1.4,6.11-8.71,22.94-19.11,34.19s-40.77,24.91-40.77,24.91,29.16-9.42,48.29-28.78c9.16-9.27,14.83-23.96,14.83-23.96s11.15,41.98-11.29,58.17-60.17,44.26-111.21,6.58-64.1-68.52-69.51-79.12-12.91-39.56-12.91-39.56,34.23,8.79,51.61,9.03,45.06-2.86,43.21-12.07-31.76-9.52-53.24-15.33-44.42-14.15-49.35-25.98,5.11-56.33,5.11-56.33,26.57,15.14,39.48,15.63,28.08,3.57,30.81-1.32,1.48-10.75-31.57-19.07-29.39-8.6-35.23-18.8,4.53-33.9,14.84-56.79S1408.27,1278.79,1413.15,1274.28Z" transform="translate(-1372 -1264.03)"/>
</svg>
