<svg xmlns="http://www.w3.org/2000/svg" width="189" height="221.752" viewBox="0 0 189 221.752">
  <defs>
    <style>
      .cls-1 {
        fill: #f0f0f0;
        fill-rule: evenodd;
      }
    </style>
  </defs>
  <path id="Kształt_53_2_kopia" data-name="Kształt 53 2 kopia" class="cls-1" d="M717.459,842.816a69.471,69.471,0,0,0-7.276,16.27l-1.146,6.106c13.221-6.621,21.059-14.569,23.5-23.726,1.477-5.539.07-8.853-4.2-9.993C725.575,830.738,721.955,834.541,717.459,842.816Zm0.958,29.527Q699.025,888.075,693.87,900q17.686-5.635,35.382-11.245,25.556-9.388,28.018-18.572,0.735-2.757-2.268-6.257c-2.006-2.334-3.9-3.758-5.735-4.247Q737.83,856.627,718.417,872.343ZM730,906.164q12.18,0.3,23.92.48c11.507-.206,17.959-2.921,19.337-8.091,0.333-1.247-.144-2.839-1.424-4.813-1.257-2-2.513-3.141-3.727-3.465Q753.883,886.483,730,906.164ZM615.908,885.088q-3.186,11.945,16.169,23.99c-0.23-5.3-.615-10.636-1.13-16.046q-1.22-10.133-7.623-11.847C619.346,880.125,616.888,881.412,615.908,885.088Zm102.863,43.887q16.8,9.685,22.764,11.26,16.478,4.394,18.943-4.787,2.693-10.1-27.089-18.041-19.245-5.132-34.7-2.377Q701.954,919.352,718.771,928.975ZM665.8,907.753q-18.8-5.013-25.88,21.6-5.391,20.221,7.438,23.623c5.5,1.467,10.464,0,14.907-4.366a32.651,32.651,0,0,0,8.874-14.865Q677.257,910.784,665.8,907.753Zm29.889,36.971q0.166,2.986,15.973,15.56,15.759,12.6,20.346,13.795,11,2.936,12.841-3.951,4.156-15.587-26.519-23.8Q720.147,946.81,695.686,944.724Zm-18.273,13.31q-2.06,13.244,8.448,31.767,10.533,18.553,23.356,21.969,9.152,2.43,10.991-4.47,2.445-9.165-15.09-26.15-12.741-11.236-25.878-22.629Zm-4.929,62.626q3.811,20.67,13.9,23.35c1.842,0.49,4.107-.12,6.859-1.83,2.744-1.73,4.377-3.52,4.866-5.36q2.077-7.785-4.321-16.89c-0.454-.75-4.477-5.3-12.1-13.53q-3.942-5.46-12.177-15.056Q670.991,1005.993,672.484,1020.66Zm-29.418-15.72q-11.2,17.175-11.812,19.46a27.468,27.468,0,0,0,.107,14.3c1.66,6.02,4.494,9.58,8.447,10.63q8.706,2.325,12.39-11.47,2.451-9.195,2.662-50.423Q654.265,987.767,643.066,1004.94Zm53.105-165.084c-1.557-6.457-4.615-10.319-9.191-11.539q-11.471-3.06-16.949,17.6-4.659,17.472,7.845,40.453,14.842-15.207,18.662-29.443C697.836,852.059,697.7,846.363,696.171,839.856ZM642.7,848.967q-7.312-1.95-9.151,4.935c-0.977,3.666.565,8.929,4.624,15.725,4.069,6.843,7.946,11.879,11.672,15.163Q650.926,851.156,642.7,848.967ZM621.634,950.059l-0.877-2.214c-5.283-1.066-11.753-.688-19.455,1.195q-13.632,3.27-15.468,10.147c-1.22,4.578.594,7.556,5.5,8.864q7.313,1.95,16.644-5.43C612.413,958.259,616.973,954.048,621.634,950.059Zm-23.762,68.9q-2.817,10.56,4.514,12.52c5.19,1.38,9.485-.61,12.875-5.93q6.483-11.55,19.516-34.6l-0.412-2.11q-0.6.328-20.691,13.166Q600.075,1010.68,597.872,1018.96Zm5.066-42.934q-15.637,5.221-18.308,15.3-1.467,5.5,4.944,7.216,7.774,2.073,22.06-9.118t16.129-20.023Q615.634,972.555,602.938,976.026Zm14.174-55.946q-5.586-7.606-11.064-9.073c-5.2-1.386-8.324-.117-9.387,3.87s1.191,7.862,6.729,11.629a39.042,39.042,0,0,0,13.465,6.54c0.607,0.161,2.822.441,6.663,0.795Q622.678,927.724,617.112,920.08Z" transform="translate(-584.344 -827.938)"/>
</svg>
